<?xml version="1.0" encoding="UTF-8"?>
<!-- Generated by Pixelmator Pro 3.7.1 -->
<svg width="1024" height="1024" viewBox="0 0 1024 1024" xmlns="http://www.w3.org/2000/svg">
    <g id="Group-copy">
        <path id="Path" fill="#d3853a" stroke="none" d="M 201.738815 993.620605 C 147.178635 993.620605 113.318535 981.260498 110.058525 921.080322 L 109.958527 544.539185 C 66.698387 521.659058 39.058308 493.239014 22.078253 462.858948 C 3.078194 428.858826 -2.141822 393.058655 -0.801818 359.978638 C 3.318195 258.458252 58.338364 177.317993 141.65863 120.5578 C 221.298874 66.317688 327.219208 34.557556 438.459534 29.137573 C 473.85965 23.677551 510.319763 20.95752 547.099854 21.097534 C 668.620239 21.617493 782.440613 50.697632 868.240845 106.917847 C 949.281128 160.037964 1005.601257 236.998169 1020.881348 336.758484 C 1026.601318 374.038635 1021.521362 417.298828 995.981262 458.878906 L 995.981262 458.978943 C 977.881226 488.458984 949.441101 516.899048 907.16095 541.259155 L 907.16095 927.560364 C 907.16095 929.40033 906.960999 931.200317 906.600952 932.940369 C 898.341003 985.780518 865.960876 999.160583 820.08075 1001.060608 C 623.960144 1008.920593 400.819427 996.160583 201.738815 993.620605 Z"/>
        <path id="path1" fill="#ffcf6d" fill-rule="evenodd" stroke="none" d="M 995.641296 340.558533 C 1004.54126 398.638733 983.02124 473.618896 881.620911 526.199097 L 881.620911 912.560303 C 876.060913 950.840393 858.10083 960.640442 808.480652 960.860474 L 273.09903 960.860474 C 216.618851 959.780457 208.798828 947.860413 206.858826 912.560303 L 206.858826 521.539063 C 113.918533 478.55896 93.658478 411.758728 96.018478 353.778564 C 103.898506 159.61792 318.299164 45.577637 546.999878 46.557617 C 770.900574 47.517639 966.22113 148.577942 995.641296 340.558533 Z"/>
        <path id="path2" fill="#e7b755" fill-rule="evenodd" stroke="none" d="M 599.680054 170.377991 C 621.460144 170.377991 639.100159 188.038086 639.100159 209.798096 C 639.100159 231.578186 621.460144 249.23822 599.680054 249.23822 C 577.900024 249.23822 560.239929 231.578186 560.239929 209.798096 C 560.239929 188.038086 577.900024 170.377991 599.680054 170.377991 Z M 381.039368 150.11792 C 398.939423 150.11792 413.439484 164.638 413.439484 182.518066 C 413.439484 200.418152 398.939423 214.918152 381.039368 214.918152 C 363.159302 214.918152 348.659271 200.418152 348.659271 182.518066 C 348.659271 164.638 363.159302 150.11792 381.039368 150.11792 Z M 469.439636 787.939941 C 499.999725 787.939941 524.759827 812.719971 524.759827 843.28009 C 524.759827 873.84021 499.999725 898.600281 469.439636 898.600281 C 438.879547 898.600281 414.099487 873.84021 414.099487 843.28009 C 414.099487 812.719971 438.879547 787.939941 469.439636 787.939941 Z M 285.479095 824.100037 C 300.539124 824.100037 312.739136 836.300049 312.739136 851.360107 C 312.739136 866.400146 300.539124 878.620239 285.479095 878.620239 C 270.439026 878.620239 258.238983 866.400146 258.238983 851.360107 C 258.238983 836.300049 270.439026 824.100037 285.479095 824.100037 Z M 736.720459 688.259583 C 762.060547 688.259583 782.600586 708.799683 782.600586 734.139709 C 782.600586 759.479858 762.060547 780.019897 736.720459 780.019897 C 711.380371 780.019897 690.840332 759.479858 690.840332 734.139709 C 690.840332 708.799683 711.380371 688.259583 736.720459 688.259583 Z M 627.56012 823.580017 C 649.34021 823.580017 667.000244 841.220093 667.000244 863.000183 C 667.000244 884.760193 649.34021 902.420288 627.56012 902.420288 C 605.800049 902.420288 588.140015 884.760193 588.140015 863.000183 C 588.140015 841.220093 605.800049 823.580017 627.56012 823.580017 Z M 690.760315 435.838806 C 733.100403 435.838806 767.420532 470.178894 767.420532 512.519043 C 767.420532 554.859192 733.100403 589.179321 690.760315 589.179321 C 648.420166 589.179321 614.100037 554.859192 614.100037 512.519043 C 614.100037 470.178894 648.420166 435.838806 690.760315 435.838806 Z M 532.519836 620.779419 C 550.399902 620.779419 564.919922 635.279419 564.919922 653.179504 C 564.919922 671.05957 550.399902 685.55957 532.519836 685.55957 C 514.639771 685.55957 500.11972 671.05957 500.11972 653.179504 C 500.11972 635.279419 514.639771 620.779419 532.519836 620.779419 Z M 355.69931 526.819092 C 387.939392 526.819092 414.079468 552.939209 414.079468 585.179321 C 414.079468 617.419373 387.939392 643.559448 355.69931 643.559448 C 323.459167 643.559448 297.319122 617.419373 297.319122 585.179321 C 297.319122 552.939209 323.459167 526.819092 355.69931 526.819092 Z M 430.319519 291.918396 C 460.879608 291.918396 485.639709 316.698425 485.639709 347.238586 C 485.639709 377.798706 460.879608 402.578735 430.319519 402.578735 C 399.75943 402.578735 374.97937 377.798706 374.97937 347.238586 C 374.97937 316.698425 399.75943 291.918396 430.319519 291.918396 Z M 261.438995 287.618347 C 276.479065 287.618347 288.679077 299.81842 288.679077 314.878418 C 288.679077 329.938477 276.479065 342.13855 261.438995 342.13855 C 246.378952 342.13855 234.178909 329.938477 234.178909 314.878418 C 234.178909 299.81842 246.378952 287.618347 261.438995 287.618347 Z M 813.240723 304.178406 C 838.580811 304.178406 859.12085 324.718506 859.12085 350.058533 C 859.12085 375.41864 838.580811 395.958679 813.240723 395.958679 C 787.900635 395.958679 767.340576 375.41864 767.340576 350.058533 C 767.340576 324.718506 787.900635 304.178406 813.240723 304.178406 Z"/>
    </g>
</svg>
